<svg t="1659254783057" class="icon" viewBox="0 0 1024 1024" version="1.1" xmlns="http://www.w3.org/2000/svg" p-id="1557" width="200" height="200"><path d="M853 272.16a42.527 42.527 0 0 1-9.465 14.343L624.118 505.921c-62.105 62.105-162.798 62.105-224.903 0L179.798 286.503a42.527 42.527 0 0 1-9.465-14.343v496.173H853V475.542c0-23.564 19.103-42.667 42.667-42.667s42.666 19.103 42.666 42.667v292.791c0 47.129-38.205 85.334-85.333 85.334H170.333c-47.128 0-85.333-38.205-85.333-85.334v-512C85 209.205 123.205 171 170.333 171H853c47.128 0 85.333 38.205 85.333 85.333v86.604c0 23.565-19.102 42.667-42.666 42.667-23.564 0-42.667-19.102-42.667-42.666V272.16z m-99.974-15.827H270.308l189.247 189.248c28.78 28.78 75.443 28.78 104.223 0l189.248-189.248z" p-id="1558"></path></svg>